<?xml version="1.0" encoding="UTF-8"?>
<svg version="1.1" xmlns="http://www.w3.org/2000/svg" width="500" height="500">
<path d="M0 0 C1.31827789 -0.00846954 2.63655579 -0.01693909 3.99478149 -0.02566528 C7.58797207 -0.04775496 11.18093247 -0.05081827 14.7741816 -0.04891777 C17.7857403 -0.04879747 20.79725128 -0.05738594 23.80879658 -0.06569529 C30.92090375 -0.0848848 38.03289358 -0.08782973 45.14501953 -0.08105469 C52.45410621 -0.07441945 59.76268754 -0.09726727 67.07167178 -0.13436842 C73.37180567 -0.16517464 79.67177792 -0.17641362 85.97198552 -0.1725316 C89.72381702 -0.17047507 93.47525516 -0.17577158 97.22701454 -0.20042419 C100.75923948 -0.22287041 104.29064939 -0.22066807 107.82287979 -0.20049667 C109.71703737 -0.19552217 111.61121141 -0.21497634 113.50526428 -0.23550415 C125.45523244 -0.11965784 134.83934877 3.65561005 143.4597168 11.94335938 C148.59035047 17.90090837 151.70510681 24.9003032 151.72954369 32.78687191 C151.73461823 33.65911811 151.73969277 34.53136431 151.74492109 35.43004221 C151.74541885 36.38382637 151.7459166 37.33761053 151.74642944 38.32029724 C151.75300282 39.84533885 151.75300282 39.84533885 151.759709 41.40118939 C151.77309571 44.81816133 151.7792755 48.23510748 151.78540039 51.65209961 C151.7933012 54.09774899 151.80157014 56.5433972 151.81018066 58.98904419 C151.83413184 66.3333972 151.84932447 73.67774596 151.86224073 81.02212462 C151.86595379 83.09625032 151.8699269 85.17037536 151.8739934 87.2445004 C151.89922331 100.12502422 151.92127583 113.00554912 151.93372154 125.88609219 C151.9366512 128.86782777 151.93961288 131.84956332 151.94262695 134.83129883 C151.943373 135.57238835 151.94411905 136.31347787 151.94488771 137.07702465 C151.95755084 149.09150419 151.9907892 161.10583607 152.03242879 173.12024652 C152.07482679 185.45448365 152.09841379 197.78864509 152.10364211 210.12295491 C152.10705789 217.04865349 152.1188331 223.97412096 152.15174484 230.89974785 C152.18263766 237.41111232 152.18817432 243.92214638 152.17636108 250.43359756 C152.17613951 252.82616362 152.18451373 255.21874787 152.20201492 257.61124992 C152.2245748 260.87217915 152.21647194 264.13162799 152.20053101 267.39256287 C152.21441309 268.34411631 152.22829518 269.29566975 152.24259794 270.27605814 C152.18817298 274.77985661 152.05243956 276.79954868 149.30062294 280.51147556 C146.31472622 282.61569511 144.25027089 283.08231366 140.59643555 282.85351562 C137.32276825 282.14517826 135.1091331 280.55903511 132.5925293 278.41992188 C132.5925293 277.75992187 132.5925293 277.09992188 132.5925293 276.41992188 C132.0049585 276.14245117 131.4173877 275.86498047 130.81201172 275.57910156 C128.71638169 274.48460686 126.95668692 273.30490276 125.08081055 271.87304688 C124.41428467 271.36515625 123.74775879 270.85726563 123.06103516 270.33398438 C121.99381226 269.51027344 121.99381226 269.51027344 120.9050293 268.66992188 C120.15680908 268.095 119.40858887 267.52007812 118.63769531 266.92773438 C111.18009982 261.16196239 103.9202291 255.16601471 96.67016602 249.14306641 C87.05014392 241.16443939 77.32242842 233.3554793 67.3503418 225.82006836 C63.33927752 222.78504916 59.43027688 219.67184506 55.5925293 216.41992188 C51.7302739 218.0979406 48.60574235 220.62332135 45.3425293 223.23242188 C44.42987305 223.95558594 44.42987305 223.95558594 43.4987793 224.69335938 C38.14881191 228.9450611 32.85108958 233.2611086 27.55639648 237.58129883 C23.27022221 241.07375625 18.95024164 244.51724786 14.5925293 247.91992188 C9.4626314 251.92627501 4.38929452 255.99684077 -0.6574707 260.10742188 C-1.33704834 260.66067139 -2.01662598 261.2139209 -2.71679688 261.78393555 C-4.61394725 263.32894664 -6.51079536 264.87432768 -8.4074707 266.41992188 C-11.71791129 269.11731791 -15.04665661 271.7856204 -18.4074707 274.41992188 C-19.33301758 275.16628906 -20.25856445 275.91265625 -21.2121582 276.68164062 C-28.33563437 282.21246968 -28.33563437 282.21246968 -33.2824707 283.16992188 C-36.92419976 282.2959069 -38.77234571 281.05504687 -41.4074707 278.41992188 C-42.55030651 276.13425026 -42.53561153 274.86870852 -42.54169178 272.32865143 C-42.54614962 271.46695422 -42.55060747 270.60525701 -42.5552004 269.71744776 C-42.55501604 268.76513946 -42.55483167 267.81283116 -42.55464172 266.83166504 C-42.55831841 265.82429086 -42.5619951 264.81691669 -42.5657832 263.77901602 C-42.57685375 260.38131812 -42.58066963 256.98365077 -42.58447266 253.5859375 C-42.59073489 251.15854799 -42.59738148 248.73115945 -42.60438538 246.30377197 C-42.62364071 239.00156599 -42.63421938 231.69936251 -42.64311317 224.39713883 C-42.64749581 220.95756327 -42.65286284 217.51798926 -42.65810204 214.07841492 C-42.67511865 202.64168874 -42.68961097 191.20496352 -42.69685078 179.76822662 C-42.69876066 176.79926044 -42.70068099 173.83029427 -42.70263672 170.86132812 C-42.70312046 170.12340977 -42.7036042 169.38549141 -42.7041026 168.62521189 C-42.71239586 156.68190574 -42.73771888 144.73869998 -42.7702174 132.79543763 C-42.80331947 120.53016942 -42.82130254 108.26495214 -42.82449502 95.99963903 C-42.82665766 89.11458969 -42.83536962 82.22968655 -42.86095619 75.34468079 C-42.88498542 68.86372608 -42.88846904 62.38296281 -42.87819481 55.90196991 C-42.87769935 53.52602515 -42.88402263 51.15006745 -42.89775085 48.77416229 C-42.91547716 45.52381046 -42.90835906 42.27440093 -42.8952179 39.02404785 C-42.90618714 38.08958533 -42.91715639 37.1551228 -42.92845803 36.19234324 C-42.82613168 25.66790612 -38.70720073 16.93562024 -31.4074707 9.41992188 C-21.81174288 1.38547335 -12.22596303 -0.02913339 0 0 Z M-26.4074707 47.41992188 C-26.4074707 52.69992188 -26.4074707 57.97992188 -26.4074707 63.41992188 C-25.0874707 63.41992188 -23.7674707 63.41992188 -22.4074707 63.41992188 C-22.4074707 61.43992187 -22.4074707 59.45992187 -22.4074707 57.41992188 C-16.4674707 57.41992188 -10.5274707 57.41992188 -4.4074707 57.41992188 C-4.7374707 56.09992188 -5.0674707 54.77992188 -5.4074707 53.41992188 C-11.0174707 53.41992188 -16.6274707 53.41992188 -22.4074707 53.41992188 C-22.4074707 51.43992187 -22.4074707 49.45992187 -22.4074707 47.41992188 C-23.7274707 47.41992188 -25.0474707 47.41992188 -26.4074707 47.41992188 Z M-25.4074707 76.41992188 C-25.7374707 77.73992187 -26.0674707 79.05992187 -26.4074707 80.41992188 C-25.41263868 81.6363548 -25.41263868 81.6363548 -23.45800781 81.53344727 C-22.2090271 81.52559204 -22.2090271 81.52559204 -20.93481445 81.51757812 C-19.58613281 81.51274414 -19.58613281 81.51274414 -18.21020508 81.5078125 C-16.79191406 81.49524414 -16.79191406 81.49524414 -15.3449707 81.48242188 C-14.39557617 81.47791016 -13.44618164 81.47339844 -12.46801758 81.46875 C-10.11444005 81.45692298 -7.76098593 81.44044213 -5.4074707 81.41992188 C-5.0774707 80.42992187 -4.7474707 79.43992187 -4.4074707 78.41992188 C-4.7374707 77.75992188 -5.0674707 77.09992188 -5.4074707 76.41992188 C-12.0074707 76.41992188 -18.6074707 76.41992188 -25.4074707 76.41992188 Z M-26.4074707 95.41992188 C-26.78414619 97.75904669 -26.78414619 97.75904669 -26.4074707 100.41992188 C-24.46142046 102.53793984 -24.46142046 102.53793984 -21.9074707 104.23242188 C-20.65450195 105.13927734 -20.65450195 105.13927734 -19.3762207 106.06445312 C-18.7265332 106.51175781 -18.0768457 106.9590625 -17.4074707 107.41992188 C-21.8624707 107.91492188 -21.8624707 107.91492188 -26.4074707 108.41992188 C-26.4074707 109.73992187 -26.4074707 111.05992187 -26.4074707 112.41992188 C-19.4774707 112.41992188 -12.5474707 112.41992188 -5.4074707 112.41992188 C-5.0774707 111.09992188 -4.7474707 109.77992188 -4.4074707 108.41992188 C-7.3774707 108.08992188 -10.3474707 107.75992188 -13.4074707 107.41992188 C-10.4374707 104.77992188 -7.4674707 102.13992187 -4.4074707 99.41992188 C-4.7374707 98.09992188 -5.0674707 96.77992188 -5.4074707 95.41992188 C-5.95016602 95.84144531 -6.49286133 96.26296875 -7.05200195 96.69726562 C-7.76743164 97.24511719 -8.48286133 97.79296875 -9.2199707 98.35742188 C-10.28151367 99.17533203 -10.28151367 99.17533203 -11.36450195 100.00976562 C-13.4074707 101.41992188 -13.4074707 101.41992188 -16.4074707 102.41992188 C-18.6340332 100.98632812 -18.6340332 100.98632812 -21.0324707 98.98242188 C-23.4416696 96.59489454 -23.4416696 96.59489454 -26.4074707 95.41992188 Z M-24.2199707 128.66992188 C-27.07508696 132.87746162 -26.5684717 137.50939145 -26.4074707 142.41992188 C-24.85673923 143.97065335 -23.37684817 143.54961316 -21.22387695 143.55273438 C-20.37889648 143.55402344 -19.53391602 143.5553125 -18.66333008 143.55664062 C-17.77452148 143.55277344 -16.88571289 143.54890625 -15.9699707 143.54492188 C-15.0850293 143.54878906 -14.20008789 143.55265625 -13.28833008 143.55664062 C-12.01892578 143.55470703 -12.01892578 143.55470703 -10.72387695 143.55273438 C-9.94471924 143.55160645 -9.16556152 143.55047852 -8.36279297 143.54931641 C-6.32772582 143.54137341 -6.32772582 143.54137341 -4.4074707 142.41992188 C-4.7374707 141.09992188 -5.0674707 139.77992188 -5.4074707 138.41992188 C-8.0474707 138.41992188 -10.6874707 138.41992188 -13.4074707 138.41992188 C-10.78406991 135.5050321 -7.68930676 133.53488289 -4.4074707 131.41992188 C-4.7374707 130.09992188 -5.0674707 128.77992188 -5.4074707 127.41992188 C-8.3774707 128.73992187 -11.3474707 130.05992187 -14.4074707 131.41992188 C-15.0674707 130.09992188 -15.7274707 128.77992188 -16.4074707 127.41992188 C-20.55233854 127.04603305 -20.55233854 127.04603305 -24.2199707 128.66992188 Z M-15.9074707 159.85742188 C-17.24745117 160.3456543 -17.24745117 160.3456543 -18.61450195 160.84375 C-19.88874023 161.31264648 -19.88874023 161.31264648 -21.1887207 161.79101562 C-21.97311523 162.07904053 -22.75750977 162.36706543 -23.56567383 162.66381836 C-25.39087799 163.27479779 -25.39087799 163.27479779 -26.4074707 164.41992188 C-26.44810902 166.08609303 -26.4501917 167.75380282 -26.4074707 169.41992188 C-23.3089367 170.62250443 -20.20289004 171.80432971 -17.0949707 172.98242188 C-15.77335937 173.49579102 -15.77335937 173.49579102 -14.42504883 174.01953125 C-13.15371094 174.4980957 -13.15371094 174.4980957 -11.85668945 174.98632812 C-11.07640381 175.28482666 -10.29611816 175.5833252 -9.4921875 175.89086914 C-7.23668926 176.66292157 -7.23668926 176.66292157 -4.4074707 175.41992188 C-5.0674707 174.09992188 -5.7274707 172.77992188 -6.4074707 171.41992188 C-7.0674707 171.41992188 -7.7274707 171.41992188 -8.4074707 171.41992188 C-8.4074707 168.44992187 -8.4074707 165.47992188 -8.4074707 162.41992188 C-7.0874707 161.75992188 -5.7674707 161.09992188 -4.4074707 160.41992188 C-4.7374707 159.09992188 -5.0674707 157.77992188 -5.4074707 156.41992188 C-8.80819384 156.41992188 -12.74983598 158.69324342 -15.9074707 159.85742188 Z M-26.4074707 190.41992188 C-26.4074707 192.06992187 -26.4074707 193.71992188 -26.4074707 195.41992188 C-22.64320538 197.38804029 -19.01653133 199.22059294 -14.9699707 200.54492188 C-12.4074707 201.41992188 -12.4074707 201.41992188 -11.4074707 203.41992188 C-12.07133789 203.60167969 -12.73520508 203.7834375 -13.41918945 203.97070312 C-18.14200683 205.31515479 -22.33582409 206.56976925 -26.4074707 209.41992188 C-26.0774707 211.06992187 -25.7474707 212.71992188 -25.4074707 214.41992188 C-18.8074707 214.41992188 -12.2074707 214.41992188 -5.4074707 214.41992188 C-5.0774707 213.09992188 -4.7474707 211.77992188 -4.4074707 210.41992188 C-7.15825954 209.50299226 -8.76695983 209.31106104 -11.5949707 209.35742188 C-12.8530957 209.37804687 -14.1112207 209.39867187 -15.4074707 209.41992188 C-13.02289122 207.83020222 -10.77705831 206.55250594 -8.2199707 205.29492188 C-7.50454102 204.94171875 -6.78911133 204.58851563 -6.05200195 204.22460938 C-5.50930664 203.9590625 -4.96661133 203.69351563 -4.4074707 203.41992188 C-5.37505273 200.99344675 -5.93897552 199.68649663 -8.24731445 198.37304688 C-8.93954102 198.14101563 -9.63176758 197.90898437 -10.3449707 197.66992188 C-11.03461914 197.42757812 -11.72426758 197.18523437 -12.43481445 196.93554688 C-14.55139632 196.29347697 -14.55139632 196.29347697 -17.4074707 196.41992188 C-17.4074707 195.75992188 -17.4074707 195.09992188 -17.4074707 194.41992188 C-13.4474707 194.41992188 -9.4874707 194.41992188 -5.4074707 194.41992188 C-5.4074707 193.09992188 -5.4074707 191.77992188 -5.4074707 190.41992188 C-12.3374707 190.41992188 -19.2674707 190.41992188 -26.4074707 190.41992188 Z " fill="#4395FE" transform="translate(195.407470703125,108.580078125)"/>
<path d="M0 0 C5.64188448 5.01500842 9.65008137 11.37866563 10.12995183 19.08763593 C10.13228248 19.83980959 10.13461312 20.59198324 10.13701439 21.36695004 C10.14208893 22.23919623 10.14716347 23.11144243 10.15239179 24.01012033 C10.15288955 24.96390449 10.15338731 25.91768865 10.15390015 26.90037537 C10.1582824 27.91706977 10.16266465 28.93376418 10.1671797 29.98126751 C10.18056641 33.39823945 10.18674621 36.8151856 10.19287109 40.23217773 C10.20077191 42.67782711 10.20904085 45.12347533 10.21765137 47.56912231 C10.24160254 54.91347533 10.25679518 62.25782408 10.26971143 69.60220274 C10.27342449 71.67632845 10.2773976 73.75045348 10.2814641 75.82457852 C10.30669401 88.70510234 10.32874653 101.58562725 10.34119225 114.46617031 C10.3441219 117.4479059 10.34708358 120.42964145 10.35009766 123.41137695 C10.35084371 124.15246647 10.35158976 124.89355599 10.35235842 125.65710277 C10.36502154 137.67158231 10.39825991 149.68591419 10.43989949 161.70032465 C10.48229749 174.03456177 10.5058845 186.36872321 10.51111281 198.70303303 C10.51452859 205.62873161 10.5263038 212.55419908 10.55921555 219.47982597 C10.59010836 225.99119044 10.59564502 232.50222451 10.58383179 239.01367569 C10.58361021 241.40624175 10.59198443 243.79882599 10.60948563 246.19132805 C10.63204551 249.45225728 10.62394264 252.71170612 10.60800171 255.97264099 C10.6218838 256.92419443 10.63576588 257.87574787 10.65006864 258.85613626 C10.59473701 263.43496412 10.48681048 265.37147986 7.60189247 269.09619236 C3.72554601 271.93251941 1.6668852 271.39549875 -3 271 C-3 270.67 -3 270.34 -3 270 C-0.69 270 1.62 270 4 270 C4 269.34 4 268.68 4 268 C3.01 267.67 2.02 267.34 1 267 C1 266.67 1 266.34 1 266 C3.31 266 5.62 266 8 266 C7.89525719 234.52539665 7.78554006 203.05081557 7.66888306 171.57625427 C7.65511356 167.85999973 7.64138645 164.14374503 7.62768555 160.42749023 C7.62359309 159.3177358 7.62359309 159.3177358 7.61941796 158.18556208 C7.57534858 146.20782605 7.53471297 134.2300807 7.49534739 122.25232839 C7.45487519 109.96113546 7.41071051 97.6699598 7.36312145 85.37879235 C7.33387518 77.79511731 7.30750558 70.21144349 7.28482103 62.62774593 C7.26711497 56.81158284 7.24427035 50.99544867 7.21950912 45.17931175 C7.21015871 42.79406075 7.20247624 40.40880254 7.19658089 38.0235405 C7.18828555 34.76793123 7.17399923 31.51240103 7.15821838 28.25682068 C7.15724028 27.31225539 7.15626217 26.3676901 7.15525442 25.39450163 C7.12467828 20.4916599 6.8287571 15.83435865 6 11 C5.34 11 4.68 11 4 11 C3.71125 10.21625 3.4225 9.4325 3.125 8.625 C2.15087746 5.90328368 2.15087746 5.90328368 0 4 C0 2.68 0 1.36 0 0 Z " fill="#4B92EB" transform="translate(337,120)"/>
<path d="M0 0 C0.33 0 0.66 0 1 0 C1.00238835 1.29082143 1.00477671 2.58164286 1.00723743 3.91158009 C1.06456047 34.53262629 1.13726468 65.15359283 1.22898628 95.77455385 C1.24025485 99.54102711 1.25139323 103.30750073 1.26245117 107.07397461 C1.26465486 107.82383199 1.26685854 108.57368936 1.269129 109.34626969 C1.30453009 121.49806866 1.32937833 133.64986756 1.35034702 145.80169902 C1.37208672 158.26466165 1.40511962 170.72755718 1.44870156 183.19046277 C1.47524996 190.88472396 1.4929218 198.57890151 1.49934604 206.27320626 C1.50520892 212.16683677 1.52676139 218.06034323 1.55427551 223.95391464 C1.56310143 226.37631471 1.56676899 228.79873966 1.56500816 231.22115517 C1.56336786 234.51776221 1.5799483 237.81377931 1.60127258 241.11030579 C1.59642501 242.07819528 1.59157743 243.04608478 1.58658296 244.04330426 C1.5960395 244.9236097 1.60549604 245.80391513 1.61523914 246.71089649 C1.61713775 247.47223575 1.61903635 248.23357502 1.62099248 249.01798517 C2.09812762 251.51315707 3.16586627 252.31377157 5 254 C5 254.66 5 255.32 5 256 C1.83884224 254.63016497 1.0072908 254.0109362 -1 251 C-1.24954766 249.04067326 -1.24954766 249.04067326 -1.24888897 246.76612854 C-1.25348777 245.89812339 -1.25808656 245.03011824 -1.26282471 244.1358099 C-1.25768115 243.1816396 -1.25253759 242.22746931 -1.24723816 241.24438477 C-1.24965257 240.2312172 -1.25206699 239.21804964 -1.25455457 238.17418003 C-1.26021155 234.7631908 -1.2515133 231.3523872 -1.24291992 227.94140625 C-1.24399231 225.5025121 -1.24593034 223.06361819 -1.24867249 220.62472534 C-1.25302584 214.67841988 -1.24806825 208.73218767 -1.23882218 202.7858932 C-1.22844651 195.86476488 -1.22850815 188.94364862 -1.22899476 182.02251399 C-1.2294956 169.67547935 -1.22032819 157.3284706 -1.20581055 144.98144531 C-1.19172272 132.99381031 -1.18463976 121.00619809 -1.18530273 109.01855469 C-1.18534269 108.28026416 -1.18538265 107.54197364 -1.18542381 106.78131068 C-1.18546417 106.04431103 -1.18550452 105.30731138 -1.1855461 104.5479784 C-1.18623563 90.91052932 -1.18034768 77.27308995 -1.17139288 63.63564402 C-1.16837401 58.80845678 -1.16731302 53.98127133 -1.16686058 49.15408325 C-1.16610795 42.66004656 -1.15977206 36.16603083 -1.14969444 29.67200089 C-1.14676559 27.28345004 -1.14554485 24.89489642 -1.14612198 22.50634384 C-1.14661026 19.2560751 -1.14098071 16.00587451 -1.13371277 12.75561523 C-1.13526137 11.80144494 -1.13680997 10.84727465 -1.1384055 9.8641901 C-1.13518106 8.99618495 -1.13195661 8.1281798 -1.12863445 7.23387146 C-1.12793003 6.4832717 -1.1272256 5.73267195 -1.12649983 4.95932674 C-1 3 -1 3 0 0 Z " fill="#7BAEEF" transform="translate(154,134)"/>
<path d="M0 0 C1.7243502 -0.00639748 1.7243502 -0.00639748 3.48353577 -0.01292419 C4.74077957 -0.01247101 5.99802338 -0.01201782 7.29336548 -0.0115509 C8.63395786 -0.01454386 9.97454938 -0.01794671 11.31513977 -0.02172852 C14.95362409 -0.03055887 18.5920849 -0.03290623 22.2305789 -0.0335443 C24.50476164 -0.03425536 26.77893841 -0.03639074 29.05311966 -0.03904152 C36.98981353 -0.04829179 44.92649061 -0.05237681 52.8631897 -0.05158997 C60.25675687 -0.05098927 67.65025105 -0.06154022 75.04379976 -0.07733363 C81.39551746 -0.0904172 87.74721133 -0.09577352 94.0989424 -0.09513456 C97.89076976 -0.09487981 101.68253225 -0.09771831 105.47434616 -0.10831261 C109.04155036 -0.11800733 112.60862785 -0.11806339 116.17583656 -0.11079597 C118.10457092 -0.109255 120.03330529 -0.11758733 121.96202087 -0.12623596 C123.69483055 -0.11994423 123.69483055 -0.11994423 125.46264648 -0.11352539 C126.9619851 -0.11434254 126.9619851 -0.11434254 128.49161339 -0.1151762 C131.69037989 0.16254365 134.35979949 1.01186231 137.35830688 2.13371277 C137.35830688 2.46371277 137.35830688 2.79371277 137.35830688 3.13371277 C136.63477304 3.13094739 135.91123919 3.12818201 135.16578007 3.12533283 C117.53757977 3.05899806 99.9094113 3.00939577 82.28111362 2.97827625 C73.75609916 2.96282599 65.23116816 2.94177178 56.70620728 2.90739441 C49.27339859 2.87743556 41.84065036 2.85812439 34.40778297 2.85144728 C30.47434529 2.84754598 26.54108054 2.83841604 22.60769844 2.8165226 C18.90016199 2.79605478 15.19286858 2.78989959 11.48528099 2.79438972 C9.48668685 2.79317988 7.48811875 2.77709189 5.48959351 2.76045227 C-0.76831893 2.78183065 -5.99178923 3.07976049 -11.77650547 5.5870924 C-14.06695155 6.25834094 -15.40881963 5.88118146 -17.64169312 5.13371277 C-16.39433744 4.48278687 -15.1436748 3.83819608 -13.89169312 3.19621277 C-13.19559937 2.83656433 -12.49950562 2.47691589 -11.78231812 2.10636902 C-7.81875644 0.3054076 -4.33831612 0.00727904 0 0 Z " fill="#8EBCF1" transform="translate(187.64169311523438,108.86628723144531)"/>
<path d="M0 0 C0.33 0 0.66 0 1 0 C1.11403185 31.63598654 1.20253219 63.27191467 1.25532665 94.90805865 C1.26158028 98.64191249 1.26805188 102.37576591 1.2746582 106.10961914 C1.27662553 107.22464643 1.27662553 107.22464643 1.2786326 108.36219952 C1.30039671 120.40279054 1.33982372 132.44326235 1.38576398 144.48378261 C1.43250076 156.83596487 1.46028949 169.18808464 1.47044247 181.54035169 C1.47730745 189.16410881 1.49899923 196.78752901 1.53958233 204.41118244 C1.56910511 210.25432123 1.57228116 216.09728654 1.56553841 221.94050217 C1.56691701 224.33952092 1.57690312 226.73855212 1.59602737 229.13749504 C1.62082196 232.40737878 1.61495372 235.6758087 1.60127258 238.94572449 C1.62311889 240.37714736 1.62311889 240.37714736 1.64540654 241.83748788 C1.5933714 246.42316383 1.48990884 248.36702489 -1.39768696 252.09787464 C-5.27469288 254.93171944 -7.33380013 254.39544067 -12 254 C-12 253.67 -12 253.34 -12 253 C-9.69 253 -7.38 253 -5 253 C-5 252.34 -5 251.68 -5 251 C-5.99 250.67 -6.98 250.34 -8 250 C-8 249.67 -8 249.34 -8 249 C-5.69 249 -3.38 249 -1 249 C-0.505 125.745 -0.505 125.745 0 0 Z " fill="#7EA7E1" transform="translate(346,137)"/>
<path d="M0 0 C0.33 0.66 0.66 1.32 1 2 C3.97 2 6.94 2 10 2 C8.47298956 5.05402088 6.04842088 5.65869481 3 7 C2.01 7 1.02 7 0 7 C-0.66 6.01 -1.32 5.02 -2 4 C-5 3.58333333 -5 3.58333333 -8 4 C-10.72106694 6.72106694 -10.60655572 8.84776311 -11.125 12.625 C-11.29257813 13.81351563 -11.46015625 15.00203125 -11.6328125 16.2265625 C-11.75398437 17.14179688 -11.87515625 18.05703125 -12 19 C-12.66 19 -13.32 19 -14 19 C-14.39852399 7.79704797 -14.39852399 7.79704797 -12 3 C-8.67766048 0.31657193 -4.11130236 0.41113024 0 0 Z " fill="#7EB4F1" transform="translate(181,233)"/>
<path d="M0 0 C4.67692308 1.47692308 4.67692308 1.47692308 6.3125 4.125 C6.539375 4.74375 6.76625 5.3625 7 6 C7.99 6 8.98 6 10 6 C10 6.66 10 7.32 10 8 C11.65 8 13.3 8 15 8 C14.01 8.99 13.02 9.98 12 11 C10.51990357 10.02223933 9.04094856 9.0427506 7.5625 8.0625 C6.73878906 7.51722656 5.91507813 6.97195312 5.06640625 6.41015625 C3 5 3 5 2 4 C2 5.32 2 6.64 2 8 C3.97223137 9.98149263 3.97223137 9.98149263 6.5 11.6875 C8.01105655 12.77648674 9.51419625 13.87680312 11 15 C11 15.33 11 15.66 11 16 C7.7 16 4.4 16 1 16 C0.08342019 10.61509359 -0.11138159 5.45769811 0 0 Z " fill="#78ADED" transform="translate(168,201)"/>
<path d="M0 0 C2.31802155 0.75672187 4.6284213 1.52934308 6.9375 2.3125 C7.59685547 2.52583984 8.25621094 2.73917969 8.93554688 2.95898438 C10.65686297 3.55041093 12.33331932 4.26863827 14 5 C14.33 5.99 14.66 6.98 15 8 C12.7101766 9.0044134 10.4183401 10.00367612 8.125 11 C7.47402344 11.28617187 6.82304687 11.57234375 6.15234375 11.8671875 C1.2265625 14 1.2265625 14 -1 14 C-1 13.01 -1 12.02 -1 11 C0.65 11 2.3 11 4 11 C5.29417988 8.14069472 5.29417988 8.14069472 4.25 5.875 C3.06395215 3.68023926 3.06395215 3.68023926 0 3 C0 2.01 0 1.02 0 0 Z " fill="#73ABF1" transform="translate(169,304)"/>
<path d="M0 0 C0.9583374 0.00523682 1.9166748 0.01047363 2.90405273 0.01586914 C4.45576172 0.02070313 4.45576172 0.02070313 6.03881836 0.02563477 C7.12743164 0.03401367 8.21604492 0.04239258 9.33764648 0.05102539 C10.97636719 0.05779297 10.97636719 0.05779297 12.64819336 0.06469727 C15.35723144 0.07652713 18.06616248 0.09300996 20.77514648 0.11352539 C20.44514648 1.10352539 20.11514648 2.09352539 19.77514648 3.11352539 C19.77514648 2.45352539 19.77514648 1.79352539 19.77514648 1.11352539 C13.17514648 1.44352539 6.57514648 1.77352539 -0.22485352 2.11352539 C-0.22485352 3.10352539 -0.22485352 4.09352539 -0.22485352 5.11352539 C6.70514648 5.11352539 13.63514648 5.11352539 20.77514648 5.11352539 C20.77514648 5.77352539 20.77514648 6.43352539 20.77514648 7.11352539 C17.15016315 7.14246471 13.52520935 7.16030331 9.90014648 7.17602539 C8.35133789 7.18859375 8.35133789 7.18859375 6.77124023 7.20141602 C5.78510742 7.20463867 4.79897461 7.20786133 3.78295898 7.21118164 C2.4161499 7.21903687 2.4161499 7.21903687 1.02172852 7.22705078 C-1.22485352 7.11352539 -1.22485352 7.11352539 -3.22485352 6.11352539 C-3.26757452 4.44740634 -3.26549184 2.77969654 -3.22485352 1.11352539 C-2.22485352 0.11352539 -2.22485352 0.11352539 0 0 Z " fill="#7BABEA" transform="translate(170.224853515625,183.886474609375)"/>
<path d="M0 0 C1 2 1 2 1 8 C-3.29 6.35 -7.58 4.7 -12 3 C-12 2.34 -12 1.68 -12 1 C-6.06 0.505 -6.06 0.505 0 0 Z " fill="#97C0EF" transform="translate(190,302)"/>
<path d="M0 0 C5.94 0 11.88 0 18 0 C17.01 1.485 17.01 1.485 16 3 C12.7421875 3.29296875 12.7421875 3.29296875 8.875 3.1875 C6.95300781 3.14689453 6.95300781 3.14689453 4.9921875 3.10546875 C4.00476563 3.07066406 3.01734375 3.03585938 2 3 C2 4.65 2 6.3 2 8 C-0.97 7.505 -0.97 7.505 -4 7 C-2.68 6.67 -1.36 6.34 0 6 C0 4.02 0 2.04 0 0 Z " fill="#87BDF6" transform="translate(173,166)"/>
<path d="M0 0 C1.32 0.33 2.64 0.66 4 1 C4 1.66 4 2.32 4 3 C2.68 3 1.36 3 0 3 C0 8.94 0 14.88 0 21 C-0.66 20.67 -1.32 20.34 -2 20 C-2.05392397 17.22890693 -2.09363455 14.45886182 -2.125 11.6875 C-2.14175781 10.90181641 -2.15851563 10.11613281 -2.17578125 9.30664062 C-2.18544922 8.1706543 -2.18544922 8.1706543 -2.1953125 7.01171875 C-2.20578613 6.31522217 -2.21625977 5.61872559 -2.22705078 4.90112305 C-2 3 -2 3 0 0 Z " fill="#5092E3" transform="translate(169,152)"/>
<path d="M0 0 C0.33 0 0.66 0 1 0 C1.76882007 8.79871863 1.76882007 8.79871863 -1 13.125 C-5.02740626 15.64212891 -7.32057498 15.39656144 -12 15 C-12 14.67 -12 14.34 -12 14 C-9.69 14 -7.38 14 -5 14 C-5 13.34 -5 12.68 -5 12 C-5.99 11.67 -6.98 11.34 -8 11 C-8 10.67 -8 10.34 -8 10 C-5.69 10 -3.38 10 -1 10 C-0.67 6.7 -0.34 3.4 0 0 Z " fill="#84B6EF" transform="translate(346,376)"/>
<path d="M0 0 C1.53445094 3.06890187 0.54984289 5.70094266 0 9 C0.99 9.66 1.98 10.32 3 11 C3.1875 14.125 3.1875 14.125 3 17 C2.566875 16.38125 2.13375 15.7625 1.6875 15.125 C0.00259517 12.7802755 0.00259517 12.7802755 -3 11 C-3.51171875 8.8359375 -3.51171875 8.8359375 -3.6875 6.375 C-3.75324219 5.55773437 -3.81898438 4.74046875 -3.88671875 3.8984375 C-3.92410156 3.27195312 -3.96148437 2.64546875 -4 2 C-2.68 1.34 -1.36 0.68 0 0 Z " fill="#79ABEE" transform="translate(190,269)"/>
<path d="M0 0 C1.67542976 0.28604898 3.34385343 0.61781233 5 1 C5 2.98 5 4.96 5 7 C3.02 7 1.04 7 -1 7 C-1.04254356 5.00045254 -1.04080783 2.99958364 -1 1 C-0.67 0.67 -0.34 0.34 0 0 Z " fill="#7DAEEB" transform="translate(174,240)"/>
<path d="M0 0 C4.15422634 3.69264564 7.27087259 7.63296818 9 13 C8.67 13.99 8.34 14.98 8 16 C8 15.34 8 14.68 8 14 C7.34 14 6.68 14 6 14 C6 13.01 6 12.02 6 11 C5.34 11 4.68 11 4 11 C3.71125 10.21625 3.4225 9.4325 3.125 8.625 C2.15087746 5.90328368 2.15087746 5.90328368 0 4 C0 2.68 0 1.36 0 0 Z " fill="#90BDF2" transform="translate(337,120)"/>
<path d="M0 0 C0.33 0.66 0.66 1.32 1 2 C-0.98 2.99 -0.98 2.99 -3 4 C-1.35 4.33 0.3 4.66 2 5 C0 7 0 7 -2.3125 7.265625 C-3.199375 7.26046875 -4.08625 7.2553125 -5 7.25 C-6.3303125 7.25773437 -6.3303125 7.25773437 -7.6875 7.265625 C-10 7 -10 7 -12 5 C-8.04 3.35 -4.08 1.7 0 0 Z " fill="#95BEEE" transform="translate(190,312)"/>
<path d="M0 0 C0 3 0 3 -2 6 C-1.01 6.33 -0.02 6.66 1 7 C1 7.66 1 8.32 1 9 C-2.3 9 -5.6 9 -9 9 C-6.31941902 5.42589203 -3.57410797 2.68058098 0 0 Z " fill="#8FBCF0" transform="translate(190,208)"/>
<path d="M0 0 C2.475 0.99 2.475 0.99 5 2 C1.88983545 5.28788824 -1.01618925 7.83735988 -5 10 C-5 8.02 -5 6.04 -5 4 C-3.02 4 -1.04 4 1 4 C0.67 2.68 0.34 1.36 0 0 Z " fill="#72ACF2" transform="translate(192,364)"/>
<path d="M0 0 C0.66 0 1.32 0 2 0 C2 0.99 2 1.98 2 3 C2.67546875 2.97679687 3.3509375 2.95359375 4.046875 2.9296875 C5.38492188 2.90261719 5.38492188 2.90261719 6.75 2.875 C7.63171875 2.85179687 8.5134375 2.82859375 9.421875 2.8046875 C12 3 12 3 16 5 C10.72 5 5.44 5 0 5 C0 3.35 0 1.7 0 0 Z " fill="#5A97E4" transform="translate(173,156)"/>
<path d="M0 0 C1.98 0 3.96 0 6 0 C6 0.66 6 1.32 6 2 C8.97 2.495 8.97 2.495 12 3 C12 3.66 12 4.32 12 5 C8.94925785 5.28780586 6.03816258 5.45787911 3 5 C0.9375 2.5 0.9375 2.5 0 0 Z " fill="#629FF0" transform="translate(329,385)"/>
<path d="M0 0 C0 1.98 0 3.96 0 6 C-2.31 5.67 -4.62 5.34 -7 5 C-7 4.01 -7 3.02 -7 2 C-2.25 0 -2.25 0 0 0 Z " fill="#8EB4E7" transform="translate(183,272)"/>
<path d="M0 0 C-2.38957269 3.24299151 -4.2047869 5.50902342 -8 7 C-8 5.02 -8 3.04 -8 1 C-5.29120665 -0.35439668 -2.99066732 -0.06501451 0 0 Z " fill="#78B0F2" transform="translate(180,379)"/>
<path d="M0 0 C0.66 0 1.32 0 2 0 C1.67 4.62 1.34 9.24 1 14 C0.34 14 -0.32 14 -1 14 C-1.027193 12.41676312 -1.04648306 10.83338938 -1.0625 9.25 C-1.07410156 8.36828125 -1.08570313 7.4865625 -1.09765625 6.578125 C-1.00826198 4.2181162 -0.66912821 2.25501476 0 0 Z " fill="#649DE4" transform="translate(168,238)"/>
<path d="M0 0 C3.3125 -0.3125 3.3125 -0.3125 7 0 C8.9375 2.5 8.9375 2.5 10 5 C9.0925 4.62875 8.185 4.2575 7.25 3.875 C4.11902985 2.69640701 4.11902985 2.69640701 1.625 3.875 C1.08875 4.24625 0.5525 4.6175 0 5 C0 3.35 0 1.7 0 0 Z " fill="#88BAF4" transform="translate(245,322)"/>
<path d="M0 0 C-2.80804268 2.96404505 -5.18315774 5.44499019 -9 7 C-8.67 5.02 -8.34 3.04 -8 1 C-5.07175348 0.02391783 -3.04386724 -0.08226668 0 0 Z " fill="#83B8F6" transform="translate(218,349)"/>
<path d="M0 0 C0.33 0 0.66 0 1 0 C1.36265043 4.23092172 0.60250805 6.62637846 -2 10 C-2.99 10 -3.98 10 -5 10 C-3.85017555 6.10828647 -2.70784225 3.06103907 0 0 Z " fill="#7CB2F1" transform="translate(160,123)"/>
<path d="M0 0 C2.31 0 4.62 0 7 0 C7.66 2.31 8.32 4.62 9 7 C5.18315774 5.44499019 2.80804268 2.96404505 0 0 Z " fill="#7EB3F2" transform="translate(319,378)"/>
<path d="M0 0 C4.571279 0.54855348 8.67435795 1.41744803 13 3 C13 3.33 13 3.66 13 4 C8.17639811 4.19294408 4.50353262 3.75747614 0 2 C0 1.34 0 0.68 0 0 Z " fill="#80B2F0" transform="translate(167,278)"/>
<path d="M0 0 C1.65 0 3.3 0 5 0 C6.32 2.31 7.64 4.62 9 7 C5.18315774 5.44499019 2.80804268 2.96404505 0 0 Z " fill="#90BFF5" transform="translate(305,367)"/>
<path d="M0 0 C1.98 0 3.96 0 6 0 C3.77174356 2.22825644 2.34238372 2.69239369 -0.625 3.625 C-1.44226563 3.88539063 -2.25953125 4.14578125 -3.1015625 4.4140625 C-3.72804687 4.60742188 -4.35453125 4.80078125 -5 5 C-5 4.01 -5 3.02 -5 2 C-3.35 2 -1.7 2 0 2 C0 1.34 0 0.68 0 0 Z " fill="#87BAF1" transform="translate(173,313)"/>
<path d="M0 0 C0.33 1.32 0.66 2.64 1 4 C2.32 4.33 3.64 4.66 5 5 C4.67 5.66 4.34 6.32 4 7 C0.63408134 5.55746343 -1.51047079 3.66735273 -4 1 C-2.68 0.67 -1.36 0.34 0 0 Z " fill="#82B8F4" transform="translate(270,335)"/>
<path d="M0 0 C0.33 0 0.66 0 1 0 C1.103125 0.928125 1.20625 1.85625 1.3125 2.8125 C2.02570928 6.11919757 2.55594822 6.87473758 5 9 C5 9.66 5 10.32 5 11 C1.125 9.125 1.125 9.125 0 8 C-0.14115161 5.32941149 -0.04247107 2.67567762 0 0 Z " fill="#70A5EB" transform="translate(154,379)"/>
<path d="M0 0 C1.32 0.33 2.64 0.66 4 1 C2.35 2.65 0.7 4.3 -1 6 C-1.99 5.67 -2.98 5.34 -4 5 C-4 4.34 -4 3.68 -4 3 C-2.68 3 -1.36 3 0 3 C0 2.01 0 1.02 0 0 Z " fill="#7DB4F4" transform="translate(183,373)"/>
<path d="M0 0 C-1.98 0.33 -3.96 0.66 -6 1 C-6 1.66 -6 2.32 -6 3 C-7.98 3.33 -9.96 3.66 -12 4 C-8.66437635 0.13769893 -4.98576775 -1.84658065 0 0 Z " fill="#99C4F5" transform="translate(182,111)"/>
<path d="M0 0 C1.32 0 2.64 0 4 0 C4 0.66 4 1.32 4 2 C5.65 2 7.3 2 9 2 C8.01 2.99 7.02 3.98 6 5 C3.98079663 3.69593116 1.98075027 2.36176581 0 1 C0 0.67 0 0.34 0 0 Z " fill="#90BEF1" transform="translate(174,207)"/>
<path d="M0 0 C2.31 0.66 4.62 1.32 7 2 C6.67 3.32 6.34 4.64 6 6 C3.97945196 4.35830472 1.97956942 2.69088222 0 1 C0 0.67 0 0.34 0 0 Z " fill="#89B7F4" transform="translate(284,350)"/>
<path d="" fill="#FFFFFF" transform="translate(0,0)"/>
<path d="" fill="#FFFFFF" transform="translate(0,0)"/>
<path d="" fill="#FFFFFF" transform="translate(0,0)"/>
<path d="" fill="#FFFFFF" transform="translate(0,0)"/>
<path d="" fill="#FFFFFF" transform="translate(0,0)"/>
<path d="" fill="#FFFFFF" transform="translate(0,0)"/>
<path d="" fill="#FFFFFF" transform="translate(0,0)"/>
<path d="" fill="#FFFFFF" transform="translate(0,0)"/>
<path d="" fill="#FFFFFF" transform="translate(0,0)"/>
<path d="" fill="#FFFFFF" transform="translate(0,0)"/>
<path d="" fill="#FFFFFF" transform="translate(0,0)"/>
<path d="" fill="#FFFFFF" transform="translate(0,0)"/>
<path d="" fill="#FFFFFF" transform="translate(0,0)"/>
<path d="" fill="#FFFFFF" transform="translate(0,0)"/>
<path d="" fill="#FFFFFF" transform="translate(0,0)"/>
<path d="" fill="#FFFFFF" transform="translate(0,0)"/>
<path d="" fill="#FFFFFF" transform="translate(0,0)"/>
<path d="" fill="#FFFFFF" transform="translate(0,0)"/>
<path d="" fill="#FFFFFF" transform="translate(0,0)"/>
<path d="" fill="#FFFFFF" transform="translate(0,0)"/>
<path d="" fill="#FFFFFF" transform="translate(0,0)"/>
<path d="" fill="#FFFFFF" transform="translate(0,0)"/>
<path d="" fill="#FFFFFF" transform="translate(0,0)"/>
<path d="" fill="#FFFFFF" transform="translate(0,0)"/>
<path d="" fill="#FFFFFF" transform="translate(0,0)"/>
<path d="" fill="#FFFFFF" transform="translate(0,0)"/>
<path d="" fill="#FFFFFF" transform="translate(0,0)"/>
<path d="" fill="#FFFFFF" transform="translate(0,0)"/>
<path d="" fill="#FFFFFF" transform="translate(0,0)"/>
<path d="" fill="#FFFFFF" transform="translate(0,0)"/>
<path d="" fill="#FFFFFF" transform="translate(0,0)"/>
<path d="" fill="#FFFFFF" transform="translate(0,0)"/>
<path d="" fill="#FFFFFF" transform="translate(0,0)"/>
<path d="" fill="#FFFFFF" transform="translate(0,0)"/>
<path d="" fill="#FFFFFF" transform="translate(0,0)"/>
<path d="" fill="#FFFFFF" transform="translate(0,0)"/>
<path d="" fill="#FFFFFF" transform="translate(0,0)"/>
<path d="" fill="#FFFFFF" transform="translate(0,0)"/>
<path d="" fill="#FFFFFF" transform="translate(0,0)"/>
<path d="" fill="#FFFFFF" transform="translate(0,0)"/>
<path d="" fill="#FFFFFF" transform="translate(0,0)"/>
<path d="" fill="#FFFFFF" transform="translate(0,0)"/>
<path d="" fill="#FFFFFF" transform="translate(0,0)"/>
<path d="" fill="#FFFFFF" transform="translate(0,0)"/>
<path d="" fill="#FFFFFF" transform="translate(0,0)"/>
<path d="" fill="#FFFFFF" transform="translate(0,0)"/>
<path d="" fill="#FFFFFF" transform="translate(0,0)"/>
<path d="" fill="#FFFFFF" transform="translate(0,0)"/>
<path d="" fill="#FFFFFF" transform="translate(0,0)"/>
<path d="" fill="#FFFFFF" transform="translate(0,0)"/>
<path d="" fill="#FFFFFF" transform="translate(0,0)"/>
<path d="" fill="#FFFFFF" transform="translate(0,0)"/>
<path d="" fill="#FFFFFF" transform="translate(0,0)"/>
<path d="" fill="#FFFFFF" transform="translate(0,0)"/>
<path d="" fill="#FFFFFF" transform="translate(0,0)"/>
<path d="" fill="#FFFFFF" transform="translate(0,0)"/>
<path d="" fill="#FFFFFF" transform="translate(0,0)"/>
<path d="" fill="#FFFFFF" transform="translate(0,0)"/>
<path d="" fill="#FFFFFF" transform="translate(0,0)"/>
<path d="" fill="#FFFFFF" transform="translate(0,0)"/>
<path d="" fill="#FFFFFF" transform="translate(0,0)"/>
<path d="" fill="#FFFFFF" transform="translate(0,0)"/>
<path d="" fill="#FFFFFF" transform="translate(0,0)"/>
<path d="" fill="#FFFFFF" transform="translate(0,0)"/>
<path d="" fill="#FFFFFF" transform="translate(0,0)"/>
<path d="" fill="#FFFFFF" transform="translate(0,0)"/>
<path d="" fill="#FFFFFF" transform="translate(0,0)"/>
<path d="" fill="#FFFFFF" transform="translate(0,0)"/>
<path d="" fill="#FFFFFF" transform="translate(0,0)"/>
<path d="" fill="#FFFFFF" transform="translate(0,0)"/>
<path d="" fill="#FFFFFF" transform="translate(0,0)"/>
<path d="" fill="#FFFFFF" transform="translate(0,0)"/>
<path d="" fill="#FFFFFF" transform="translate(0,0)"/>
<path d="" fill="#FFFFFF" transform="translate(0,0)"/>
<path d="" fill="#FFFFFF" transform="translate(0,0)"/>
</svg>
